# xmcd
#
# Track frame offsets: 
#        150
#        42059
#        57834
#        75434
#        93803
#        108879
#        124972
#        142698
#        158135
#        175205
#        192780
#        207679
#        225568
#        242969
#        260286
#        278868
#        294487
#        308488
#
# Disc length: 4389 seconds
#
# Revision: 1
# Processed by: cddbd v1.4PL0 Copyright (c) Steve Scherf et al.
# Submitted via: ExactAudioCopy v0.95a3
#
DISCID=ec112312
DTITLE=Various Artist - Wild FM 5 [CD2]
DYEAR=1900
DGENRE=
TTITLE0=Various Artists (Mixed by Nick Skitz) - Wild Skitz Megamix 3
TTITLE1=Ultra Nate - Found a Cure (Full Intention Club Edit)
TTITLE2=Lustral - Everytime (Original Edit)
TTITLE3=House Traffic featuring Michelle Weeks - Let The House Fall Do
TTITLE3=wn (Radio Mix)
TTITLE4=SJ - I Feel Divine (Tall Paul Radio Mix)
TTITLE5=DJ Quicksilver - Planet Love (Radio Edit)
TTITLE6=Camisra - Let Me Show You (Original Club Edit)
TTITLE7=A.T.G.O.C. - Repeated Love (Rollercoaster Edit)
TTITLE8=Wildchild - Renegade Master '98 (Fatboy Slim Old Skool Edit)
TTITLE9=Sol Brothers - That Elvis Track (DC Radio Edit)
TTITLE10=Run DMC Vs Jason Nevins - (It's) Tricky (Electro-Break Mix)
TTITLE11=Funkjunkeez - Got Funk? (Sol Brothers Radio Edit)
TTITLE12=Nightcrawlers - Surrender Your Love (Wand's Crunchy Nut Edit)
TTITLE13=Zero Vu featuring Lorna B. - Feels So Good (Zero Vu's Passage
TTITLE13=Mix)
TTITLE14=Brainbashers - Can You Feel It (Radio Edit)
TTITLE15=Steve "Silk" Hurley and the Voices of Life featuring Sharon Pas
TTITLE15=s - The Word Is Love (Say The Word) (Wicked Peach Radio Edit)
TTITLE16=Technocat - No No No (Radio Edit)
TTITLE17=Wand - Happiness (Club Edit)
EXTD=
EXTT0=
EXTT1=
EXTT2=
EXTT3=
EXTT4=
EXTT5=
EXTT6=
EXTT7=
EXTT8=
EXTT9=
EXTT10=
EXTT11=
EXTT12=
EXTT13=
EXTT14=
EXTT15=
EXTT16=
EXTT17=
PLAYORDER=
